<svg version="1.1" id="Layer_1" xmlns="http://www.w3.org/2000/svg" xmlns:xlink="http://www.w3.org/1999/xlink" x="0px" y="0px" viewBox="0 0 88 92.4" style="enable-background:new 0 0 88 92.4;" xml:space="preserve">
 <style type="text/css">
  .st0{filter:url(#Adobe_OpacityMaskFilter);}
	.st1{fill-rule:evenodd;clip-rule:evenodd;fill:#FFFFFF;}
	.st2{mask:url(#mask-2_36_);fill-rule:evenodd;clip-rule:evenodd;fill:url(#Fill-40_1_);}
 </style>
 <desc>
  Created with Sketch.
 </desc>
 <g id="Symbols">
  <g id="Menu-Global---Desktop-1" transform="translate(-122.000000, -15.000000)">
   <g id="Menu">
    <g id="logo" transform="translate(122.000000, 15.000000)">
     <g id="Group-41">
      <g id="Clip-5">
      </g>
      <defs>
       <filter id="Adobe_OpacityMaskFilter" filterUnits="userSpaceOnUse" x="0" y="0" width="88" height="92.4">
        <feColorMatrix type="matrix" values="1 0 0 0 0  0 1 0 0 0  0 0 1 0 0  0 0 0 1 0">
        </feColorMatrix>
       </filter>
      </defs>
      <mask maskUnits="userSpaceOnUse" x="0" y="0" width="88" height="92.4" id="mask-2_36_">
       <g class="st0">
        <polygon id="path-1_36_" class="st1" points="0,108.4 542.3,108.4 542.3,0 0,0 							">
        </polygon>
       </g>
      </mask>
      <linearGradient id="Fill-40_1_" gradientUnits="userSpaceOnUse" x1="88.8352" y1="105.4567" x2="89.9576" y2="105.4567" gradientTransform="matrix(47.0414 0 0 -49.4065 -4143.7363 5256.458)">
       <stop offset="0" style="stop-color:#780096">
       </stop>
       <stop offset="1" style="stop-color:#FF0082">
       </stop>
      </linearGradient>
      <path id="Fill-40" class="st2" d="M57,0H3.3C1.5,0,0,1.4,0,3.2v15.9c0,1.3,0.3,2.1,0.9,2.7c4.6,4.6,14,13.8,18.6,18.4
						c0.3,0.3,0.7,0.1,0.7-0.3V21.1c0-0.4-0.3-0.7-0.7-0.7H4.8c-1,0-1.7-0.8-1.7-1.7v-14C3,3.8,3.8,3,4.8,3H54c1,0,1.7,0.8,1.7,1.7
						v14c0,0.9-0.8,1.7-1.7,1.7H39.3c-0.4,0-0.7,0.3-0.7,0.7v54.5c0,0.9-0.8,1.7-1.7,1.7H22.3c-0.4,0-0.6,0.5-0.4,0.7
						c3.2,3.2,9.6,9.5,12.9,12.8c0.9,0.9,2,1.6,3.5,1.6h14c1.3,0,2.4-1.1,2.4-2.4V57.6c0-0.4,0.3-0.7,0.7-0.7H57
						c15.8,0,31-9.5,31-28.5C88,11.4,76.2,0,57,0">
      </path>
     </g>
    </g>
   </g>
  </g>
 </g>
</svg>